<svg xmlns="http://www.w3.org/2000/svg" direction="ltr" width="232" height="232" viewBox="767.6190185546875 -798.9404668807983 232 232" stroke-linecap="round" stroke-linejoin="round" data-color-mode="dark" class="tl-container tl-theme__force-sRGB tl-theme__dark" style="background-color: transparent;"><defs/><g transform="matrix(1, 0, 0, 1, 783.619, -782.9405)" opacity="1"><path stroke-width="3.5" d="M 7.7547 1.1588 L 194.0956 0.5351 Q 201.0956 0.5351 201.0956 7.5351 L 200.2368 194.1605 Q 200.2368 201.1605 193.2368 201.1605 L 6.0974 200.1415 Q -0.9026 200.1415 -0.9026 193.1415 L 0.7547 8.1588 Q 0.7547 1.1588 7.7547 1.1588 M 7.2653 0.6552 L 193.9737 0.2904 Q 200.9737 0.2904 200.9737 7.2904 L 199.6851 192.0154 Q 199.6851 199.0154 192.6851 199.0154 L 7.8703 199.0554 Q 0.8703 199.0554 0.8703 192.0554 L 0.2653 7.6552 Q 0.2653 0.6552 7.2653 0.6552" fill="none" stroke="#f2f2f2"/></g></svg>