<svg xmlns="http://www.w3.org/2000/svg" direction="ltr" width="232" height="232" viewBox="1261.6190795898438 -722.9484014511108 232 232" stroke-linecap="round" stroke-linejoin="round" data-color-mode="dark" class="tl-container tl-theme__force-sRGB tl-theme__dark" style="background-color: transparent;"><defs/><g transform="matrix(1, 0, 0, 1, 1277.6191, -706.9484)" opacity="1"><path stroke-width="3.5" d="M -0.024 100.1554 C -0.872 43.6581 43.8995 -1.1134 99.128 -1.1134 C 154.0794 -0.1278 198.8509 44.6437 198.8509 99.8722 C 199.5597 155.0892 154.7882 199.8607 99.5597 199.8607 C 44.7476 200.1554 -0.024 155.3839 -0.024 100.1554 M -0.706 100.381 C -0.7045 43.9031 44.067 -0.8684 99.2955 -0.8684 C 155.861 0.2672 200.6325 45.0388 200.6325 100.2672 C 200.1113 156.1707 155.3397 200.9423 100.1113 200.9423 C 44.0655 200.381 -0.706 155.6095 -0.706 100.381" fill="none" stroke="#f2f2f2"/></g></svg>